# xmcd CD database file generated by Grip 3.1.4
# 
# Track frame offsets:
#       150
#       17037
#       28837
#       42117
#       59112
#       74587
#       89562
#       101527
#       118105
#       131412
#       143037
#       157027
#       170605
#       183537
#       201820
#       213872
#       228277
#       239112
#       255162
#       265777
# 
# Disc length: 3767 seconds
# 
# Revision: 3
# Processed by: cddbd v1.5.1PL0 Copyright (c) Steve Scherf et al.
# Submitted via: Grip 3.1.4
# 
DISCID=270eb514
DTITLE=Various Artist - First Ladies of Country
DYEAR=2001
DGENRE=Country
TTITLE0=Dolly Parton - Jolene
TTITLE1=Tammy Wynette - I don't wanna play house
TTITLE2=Lynn Anderson - Rose garden
TTITLE3=Crystal Gayle - Miss the Mississippi and you
TTITLE4=Dixie Chicks - Tonight the heartache's on me
TTITLE5=Janie Frickie - Please help me I'm falling (in love with you)
TTITLE6=Jody Miller - There's a party goin' on
TTITLE7=Rosanne Cash - Third rate romance
TTITLE8=Lacy J. Dalton - Dream baby (how long must I dream)
TTITLE9=Patty Loveless - Wine, women and song
TTITLE10=Shelby Lynne - Under your spell again
TTITLE11=Charly McClain - Make the world go away
TTITLE12=Tanya Tucker - I'm so lonesome I could cry
TTITLE13=Joy Lynn White - Cold day in July
TTITLE14=Tammy Wynette - There goes my everything
TTITLE15=Dolly Parton - Coat of many colors (live)
TTITLE16=Barbara Mandrell - Break my mind
TTITLE17=Lynn Anderson - Sea of heartbreak
TTITLE18=Dolly Parton, Tammy Wynette, Loretta Lynn - Lovesick blues
TTITLE19=Bobbie Cryner - He feels guilty
EXTD=
EXTT0=
EXTT1=
EXTT2=
EXTT3=
EXTT4=
EXTT5=
EXTT6=
EXTT7=
EXTT8=
EXTT9=
EXTT10=
EXTT11=
EXTT12=
EXTT13=
EXTT14=
EXTT15=
EXTT16=
EXTT17=
EXTT18=
EXTT19=
PLAYORDER=
